<?xml version="1.0" encoding="UTF-8" standalone="no"?>
<!DOCTYPE svg PUBLIC "-//W3C//DTD SVG 1.1//EN"
 "http://www.w3.org/Graphics/SVG/1.1/DTD/svg11.dtd">
<!-- Generated by graphviz version 2.43.0 (0)
 -->
<!-- Title: G Pages: 1 -->
<svg width="2004pt" height="485pt"
 viewBox="0.00 0.00 2004.20 484.70" xmlns="http://www.w3.org/2000/svg" xmlns:xlink="http://www.w3.org/1999/xlink">
<g id="graph0" class="graph" transform="scale(1 1) rotate(0) translate(21.6 463.1)">
<title>G</title>
<polygon fill="#111111" stroke="transparent" points="-21.6,21.6 -21.6,-463.1 1982.6,-463.1 1982.6,21.6 -21.6,21.6"/>
<!-- cachingLayer/redisClient.js -->
<g id="node1" class="node">
<title>cachingLayer/redisClient.js</title>
<path fill="none" stroke="#c6c5fe" d="M1518.83,-87.5C1518.83,-87.5 1356.17,-87.5 1356.17,-87.5 1352.33,-87.5 1348.5,-83.67 1348.5,-79.83 1348.5,-79.83 1348.5,-72.17 1348.5,-72.17 1348.5,-68.33 1352.33,-64.5 1356.17,-64.5 1356.17,-64.5 1518.83,-64.5 1518.83,-64.5 1522.67,-64.5 1526.5,-68.33 1526.5,-72.17 1526.5,-72.17 1526.5,-79.83 1526.5,-79.83 1526.5,-83.67 1522.67,-87.5 1518.83,-87.5"/>
<text text-anchor="middle" x="1437.5" y="-72.3" font-family="Arial" font-size="14.00" fill="#c6c5fe">cachingLayer/redisClient.js</text>
</g>
<!-- controllers/blogController/blogService.js -->
<g id="node2" class="node">
<title>controllers/blogController/blogService.js</title>
<path fill="none" stroke="#c6c5fe" d="M1812.33,-203.5C1812.33,-203.5 1573.67,-203.5 1573.67,-203.5 1569.83,-203.5 1566,-199.67 1566,-195.83 1566,-195.83 1566,-188.17 1566,-188.17 1566,-184.33 1569.83,-180.5 1573.67,-180.5 1573.67,-180.5 1812.33,-180.5 1812.33,-180.5 1816.17,-180.5 1820,-184.33 1820,-188.17 1820,-188.17 1820,-195.83 1820,-195.83 1820,-199.67 1816.17,-203.5 1812.33,-203.5"/>
<text text-anchor="middle" x="1693" y="-188.3" font-family="Arial" font-size="14.00" fill="#c6c5fe">controllers/blogController/blogService.js</text>
</g>
<!-- cachingLayer/redisClient.js&#45;&gt;controllers/blogController/blogService.js -->
<g id="edge1" class="edge">
<title>cachingLayer/redisClient.js&#45;&gt;controllers/blogController/blogService.js</title>
<path fill="none" stroke="#757575" d="M1466.66,-87.65C1484.82,-95.25 1508.9,-105.49 1530,-115 1575.22,-135.37 1626.88,-160.2 1659.46,-176.06"/>
<polygon fill="#757575" stroke="#757575" points="1658.01,-179.24 1668.53,-180.48 1661.08,-172.95 1658.01,-179.24"/>
</g>
<!-- models/Blog.js -->
<g id="node8" class="node">
<title>models/Blog.js</title>
<path fill="none" stroke="#cfffac" d="M1953.33,-244.5C1953.33,-244.5 1863.67,-244.5 1863.67,-244.5 1859.83,-244.5 1856,-240.67 1856,-236.83 1856,-236.83 1856,-229.17 1856,-229.17 1856,-225.33 1859.83,-221.5 1863.67,-221.5 1863.67,-221.5 1953.33,-221.5 1953.33,-221.5 1957.17,-221.5 1961,-225.33 1961,-229.17 1961,-229.17 1961,-236.83 1961,-236.83 1961,-240.67 1957.17,-244.5 1953.33,-244.5"/>
<text text-anchor="middle" x="1908.5" y="-229.3" font-family="Arial" font-size="14.00" fill="#cfffac">models/Blog.js</text>
</g>
<!-- controllers/blogController/blogService.js&#45;&gt;models/Blog.js -->
<g id="edge10" class="edge">
<title>controllers/blogController/blogService.js&#45;&gt;models/Blog.js</title>
<path fill="none" stroke="#757575" d="M1754.04,-203.53C1782.73,-209.04 1817.02,-215.62 1845.9,-221.17"/>
<polygon fill="#757575" stroke="#757575" points="1845.39,-224.64 1855.87,-223.09 1846.71,-217.76 1845.39,-224.64"/>
</g>
<!-- utils/nlp.js -->
<g id="node11" class="node">
<title>utils/nlp.js</title>
<path fill="none" stroke="#cfffac" d="M1938.83,-203.5C1938.83,-203.5 1878.17,-203.5 1878.17,-203.5 1874.33,-203.5 1870.5,-199.67 1870.5,-195.83 1870.5,-195.83 1870.5,-188.17 1870.5,-188.17 1870.5,-184.33 1874.33,-180.5 1878.17,-180.5 1878.17,-180.5 1938.83,-180.5 1938.83,-180.5 1942.67,-180.5 1946.5,-184.33 1946.5,-188.17 1946.5,-188.17 1946.5,-195.83 1946.5,-195.83 1946.5,-199.67 1942.67,-203.5 1938.83,-203.5"/>
<text text-anchor="middle" x="1908.5" y="-188.3" font-family="Arial" font-size="14.00" fill="#cfffac">utils/nlp.js</text>
</g>
<!-- controllers/blogController/blogService.js&#45;&gt;utils/nlp.js -->
<g id="edge11" class="edge">
<title>controllers/blogController/blogService.js&#45;&gt;utils/nlp.js</title>
<path fill="none" stroke="#757575" d="M1820.05,-192C1834.15,-192 1847.79,-192 1859.94,-192"/>
<polygon fill="#757575" stroke="#757575" points="1860.2,-195.5 1870.2,-192 1860.2,-188.5 1860.2,-195.5"/>
</g>
<!-- config/config.js -->
<g id="node3" class="node">
<title>config/config.js</title>
<path fill="none" stroke="#cfffac" d="M779.83,-400.5C779.83,-400.5 689.17,-400.5 689.17,-400.5 685.33,-400.5 681.5,-396.67 681.5,-392.83 681.5,-392.83 681.5,-385.17 681.5,-385.17 681.5,-381.33 685.33,-377.5 689.17,-377.5 689.17,-377.5 779.83,-377.5 779.83,-377.5 783.67,-377.5 787.5,-381.33 787.5,-385.17 787.5,-385.17 787.5,-392.83 787.5,-392.83 787.5,-396.67 783.67,-400.5 779.83,-400.5"/>
<text text-anchor="middle" x="734.5" y="-385.3" font-family="Arial" font-size="14.00" fill="#cfffac">config/config.js</text>
</g>
<!-- controllers/authentication/authController.js -->
<g id="node4" class="node">
<title>controllers/authentication/authController.js</title>
<path fill="none" stroke="#c6c5fe" d="M607.33,-421.5C607.33,-421.5 354.67,-421.5 354.67,-421.5 350.83,-421.5 347,-417.67 347,-413.83 347,-413.83 347,-406.17 347,-406.17 347,-402.33 350.83,-398.5 354.67,-398.5 354.67,-398.5 607.33,-398.5 607.33,-398.5 611.17,-398.5 615,-402.33 615,-406.17 615,-406.17 615,-413.83 615,-413.83 615,-417.67 611.17,-421.5 607.33,-421.5"/>
<text text-anchor="middle" x="481" y="-406.3" font-family="Arial" font-size="14.00" fill="#c6c5fe">controllers/authentication/authController.js</text>
</g>
<!-- controllers/authentication/authController.js&#45;&gt;config/config.js -->
<g id="edge2" class="edge">
<title>controllers/authentication/authController.js&#45;&gt;config/config.js</title>
<path fill="none" stroke="#757575" d="M615.11,-398.89C634.63,-397.26 653.91,-395.65 671.06,-394.21"/>
<polygon fill="#757575" stroke="#757575" points="671.77,-397.67 681.45,-393.35 671.19,-390.69 671.77,-397.67"/>
</g>
<!-- models/User.js -->
<g id="node5" class="node">
<title>models/User.js</title>
<path fill="none" stroke="#cfffac" d="M779.83,-441.5C779.83,-441.5 689.17,-441.5 689.17,-441.5 685.33,-441.5 681.5,-437.67 681.5,-433.83 681.5,-433.83 681.5,-426.17 681.5,-426.17 681.5,-422.33 685.33,-418.5 689.17,-418.5 689.17,-418.5 779.83,-418.5 779.83,-418.5 783.67,-418.5 787.5,-422.33 787.5,-426.17 787.5,-426.17 787.5,-433.83 787.5,-433.83 787.5,-437.67 783.67,-441.5 779.83,-441.5"/>
<text text-anchor="middle" x="734.5" y="-426.3" font-family="Arial" font-size="14.00" fill="#cfffac">models/User.js</text>
</g>
<!-- controllers/authentication/authController.js&#45;&gt;models/User.js -->
<g id="edge3" class="edge">
<title>controllers/authentication/authController.js&#45;&gt;models/User.js</title>
<path fill="none" stroke="#757575" d="M615.11,-420.59C634.63,-422.14 653.91,-423.67 671.06,-425.03"/>
<polygon fill="#757575" stroke="#757575" points="671.2,-428.56 681.45,-425.86 671.76,-421.58 671.2,-428.56"/>
</g>
<!-- controllers/blogController/blogController.js -->
<g id="node6" class="node">
<title>controllers/blogController/blogController.js</title>
<path fill="none" stroke="#c6c5fe" d="M606.83,-281.5C606.83,-281.5 355.17,-281.5 355.17,-281.5 351.33,-281.5 347.5,-277.67 347.5,-273.83 347.5,-273.83 347.5,-266.17 347.5,-266.17 347.5,-262.33 351.33,-258.5 355.17,-258.5 355.17,-258.5 606.83,-258.5 606.83,-258.5 610.67,-258.5 614.5,-262.33 614.5,-266.17 614.5,-266.17 614.5,-273.83 614.5,-273.83 614.5,-277.67 610.67,-281.5 606.83,-281.5"/>
<text text-anchor="middle" x="481" y="-266.3" font-family="Arial" font-size="14.00" fill="#c6c5fe">controllers/blogController/blogController.js</text>
</g>
<!-- controllers/blogController/blogController.js&#45;&gt;cachingLayer/redisClient.js -->
<g id="edge4" class="edge">
<title>controllers/blogController/blogController.js&#45;&gt;cachingLayer/redisClient.js</title>
<path fill="none" stroke="#757575" d="M490.23,-258.31C512.23,-228.11 575.89,-147.52 651,-114 893.75,-5.67 1221.62,-40.14 1364.71,-62.86"/>
<polygon fill="#757575" stroke="#757575" points="1364.26,-66.33 1374.69,-64.47 1365.38,-59.42 1364.26,-66.33"/>
</g>
<!-- controllers/blogController/blogController.js&#45;&gt;controllers/blogController/blogService.js -->
<g id="edge5" class="edge">
<title>controllers/blogController/blogController.js&#45;&gt;controllers/blogController/blogService.js</title>
<path fill="none" stroke="#757575" d="M614.61,-270C707.3,-270 833.95,-270 945.5,-270 945.5,-270 945.5,-270 1193,-270 1356.96,-270 1547.63,-228.38 1638.51,-205.95"/>
<polygon fill="#757575" stroke="#757575" points="1639.45,-209.32 1648.3,-203.51 1637.75,-202.53 1639.45,-209.32"/>
</g>
<!-- controllers/recommendation/index.js -->
<g id="node7" class="node">
<title>controllers/recommendation/index.js</title>
<path fill="none" stroke="#c6c5fe" d="M1301.33,-127.5C1301.33,-127.5 1082.67,-127.5 1082.67,-127.5 1078.83,-127.5 1075,-123.67 1075,-119.83 1075,-119.83 1075,-112.17 1075,-112.17 1075,-108.33 1078.83,-104.5 1082.67,-104.5 1082.67,-104.5 1301.33,-104.5 1301.33,-104.5 1305.17,-104.5 1309,-108.33 1309,-112.17 1309,-112.17 1309,-119.83 1309,-119.83 1309,-123.67 1305.17,-127.5 1301.33,-127.5"/>
<text text-anchor="middle" x="1192" y="-112.3" font-family="Arial" font-size="14.00" fill="#c6c5fe">controllers/recommendation/index.js</text>
</g>
<!-- controllers/blogController/blogController.js&#45;&gt;controllers/recommendation/index.js -->
<g id="edge6" class="edge">
<title>controllers/blogController/blogController.js&#45;&gt;controllers/recommendation/index.js</title>
<path fill="none" stroke="#757575" d="M494.27,-258.15C520.49,-233.69 584.97,-177.97 651,-155 786.59,-107.83 952.6,-103.06 1064.47,-106.89"/>
<polygon fill="#757575" stroke="#757575" points="1064.66,-110.4 1074.79,-107.27 1064.92,-103.41 1064.66,-110.4"/>
</g>
<!-- controllers/blogController/blogController.js&#45;&gt;models/Blog.js -->
<g id="edge7" class="edge">
<title>controllers/blogController/blogController.js&#45;&gt;models/Blog.js</title>
<path fill="none" stroke="#757575" d="M569.82,-281.5C662.91,-292.69 814.3,-308 945.5,-308 945.5,-308 945.5,-308 1438.5,-308 1591.19,-308 1768.37,-268.76 1854.72,-247.05"/>
<polygon fill="#757575" stroke="#757575" points="1855.71,-250.41 1864.55,-244.55 1853.99,-243.62 1855.71,-250.41"/>
</g>
<!-- queues/queueServices.js -->
<g id="node9" class="node">
<title>queues/queueServices.js</title>
<path fill="none" stroke="#c6c5fe" d="M810.33,-187.5C810.33,-187.5 658.67,-187.5 658.67,-187.5 654.83,-187.5 651,-183.67 651,-179.83 651,-179.83 651,-172.17 651,-172.17 651,-168.33 654.83,-164.5 658.67,-164.5 658.67,-164.5 810.33,-164.5 810.33,-164.5 814.17,-164.5 818,-168.33 818,-172.17 818,-172.17 818,-179.83 818,-179.83 818,-183.67 814.17,-187.5 810.33,-187.5"/>
<text text-anchor="middle" x="734.5" y="-172.3" font-family="Arial" font-size="14.00" fill="#c6c5fe">queues/queueServices.js</text>
</g>
<!-- controllers/blogController/blogController.js&#45;&gt;queues/queueServices.js -->
<g id="edge8" class="edge">
<title>controllers/blogController/blogController.js&#45;&gt;queues/queueServices.js</title>
<path fill="none" stroke="#757575" d="M512.84,-258.47C558.09,-241.56 642.55,-209.99 692.83,-191.2"/>
<polygon fill="#757575" stroke="#757575" points="694.27,-194.4 702.41,-187.62 691.82,-187.84 694.27,-194.4"/>
</g>
<!-- utils/fieldValidator.js -->
<g id="node10" class="node">
<title>utils/fieldValidator.js</title>
<path fill="none" stroke="#cfffac" d="M793.83,-359.5C793.83,-359.5 675.17,-359.5 675.17,-359.5 671.33,-359.5 667.5,-355.67 667.5,-351.83 667.5,-351.83 667.5,-344.17 667.5,-344.17 667.5,-340.33 671.33,-336.5 675.17,-336.5 675.17,-336.5 793.83,-336.5 793.83,-336.5 797.67,-336.5 801.5,-340.33 801.5,-344.17 801.5,-344.17 801.5,-351.83 801.5,-351.83 801.5,-355.67 797.67,-359.5 793.83,-359.5"/>
<text text-anchor="middle" x="734.5" y="-344.3" font-family="Arial" font-size="14.00" fill="#cfffac">utils/fieldValidator.js</text>
</g>
<!-- controllers/blogController/blogController.js&#45;&gt;utils/fieldValidator.js -->
<g id="edge9" class="edge">
<title>controllers/blogController/blogController.js&#45;&gt;utils/fieldValidator.js</title>
<path fill="none" stroke="#757575" d="M523.84,-281.56C550.13,-289 584.69,-299.1 615,-309 631.17,-314.28 634.88,-316.55 651,-322 662.22,-325.79 674.36,-329.72 685.79,-333.33"/>
<polygon fill="#757575" stroke="#757575" points="685.02,-336.76 695.61,-336.42 687.12,-330.08 685.02,-336.76"/>
</g>
<!-- controllers/recommendation/index.js&#45;&gt;cachingLayer/redisClient.js -->
<g id="edge12" class="edge">
<title>controllers/recommendation/index.js&#45;&gt;cachingLayer/redisClient.js</title>
<path fill="none" stroke="#757575" d="M1263.1,-104.48C1292.26,-99.69 1326.27,-94.11 1356.41,-89.16"/>
<polygon fill="#757575" stroke="#757575" points="1357.17,-92.58 1366.47,-87.5 1356.03,-85.67 1357.17,-92.58"/>
</g>
<!-- models/Recommendation.js -->
<g id="node12" class="node">
<title>models/Recommendation.js</title>
<path fill="none" stroke="#cfffac" d="M1522.33,-147.5C1522.33,-147.5 1352.67,-147.5 1352.67,-147.5 1348.83,-147.5 1345,-143.67 1345,-139.83 1345,-139.83 1345,-132.17 1345,-132.17 1345,-128.33 1348.83,-124.5 1352.67,-124.5 1352.67,-124.5 1522.33,-124.5 1522.33,-124.5 1526.17,-124.5 1530,-128.33 1530,-132.17 1530,-132.17 1530,-139.83 1530,-139.83 1530,-143.67 1526.17,-147.5 1522.33,-147.5"/>
<text text-anchor="middle" x="1437.5" y="-132.3" font-family="Arial" font-size="14.00" fill="#cfffac">models/Recommendation.js</text>
</g>
<!-- controllers/recommendation/index.js&#45;&gt;models/Recommendation.js -->
<g id="edge13" class="edge">
<title>controllers/recommendation/index.js&#45;&gt;models/Recommendation.js</title>
<path fill="none" stroke="#757575" d="M1309.04,-125.53C1317.58,-126.23 1326.15,-126.94 1334.59,-127.63"/>
<polygon fill="#757575" stroke="#757575" points="1334.56,-131.14 1344.81,-128.47 1335.13,-124.16 1334.56,-131.14"/>
</g>
<!-- queues/queueServices.js&#45;&gt;cachingLayer/redisClient.js -->
<g id="edge22" class="edge">
<title>queues/queueServices.js&#45;&gt;cachingLayer/redisClient.js</title>
<path fill="none" stroke="#757575" d="M773.75,-164.46C836.16,-146.18 964.05,-111.02 1075,-95 1163.52,-82.22 1265.33,-77.78 1338.3,-76.35"/>
<polygon fill="#757575" stroke="#757575" points="1338.47,-79.85 1348.41,-76.17 1338.34,-72.85 1338.47,-79.85"/>
</g>
<!-- queues/queueServices.js&#45;&gt;models/Recommendation.js -->
<g id="edge23" class="edge">
<title>queues/queueServices.js&#45;&gt;models/Recommendation.js</title>
<path fill="none" stroke="#757575" d="M818.32,-171.27C947.07,-163.93 1194.88,-149.79 1334.47,-141.82"/>
<polygon fill="#757575" stroke="#757575" points="1334.96,-145.3 1344.74,-141.24 1334.56,-138.31 1334.96,-145.3"/>
</g>
<!-- queues/processingQueue.js -->
<g id="node17" class="node">
<title>queues/processingQueue.js</title>
<path fill="none" stroke="#c6c5fe" d="M1031.33,-207.5C1031.33,-207.5 861.67,-207.5 861.67,-207.5 857.83,-207.5 854,-203.67 854,-199.83 854,-199.83 854,-192.17 854,-192.17 854,-188.33 857.83,-184.5 861.67,-184.5 861.67,-184.5 1031.33,-184.5 1031.33,-184.5 1035.17,-184.5 1039,-188.33 1039,-192.17 1039,-192.17 1039,-199.83 1039,-199.83 1039,-203.67 1035.17,-207.5 1031.33,-207.5"/>
<text text-anchor="middle" x="946.5" y="-192.3" font-family="Arial" font-size="14.00" fill="#c6c5fe">queues/processingQueue.js</text>
</g>
<!-- queues/queueServices.js&#45;&gt;queues/processingQueue.js -->
<g id="edge24" class="edge">
<title>queues/queueServices.js&#45;&gt;queues/processingQueue.js</title>
<path fill="none" stroke="#757575" d="M818.2,-183.88C826.61,-184.68 835.23,-185.5 843.81,-186.32"/>
<polygon fill="#757575" stroke="#757575" points="843.58,-189.81 853.86,-187.27 844.24,-182.84 843.58,-189.81"/>
</g>
<!-- index.js -->
<g id="node13" class="node">
<title>index.js</title>
<path fill="none" stroke="#c6c5fe" d="M54.33,-361.5C54.33,-361.5 7.67,-361.5 7.67,-361.5 3.83,-361.5 0,-357.67 0,-353.83 0,-353.83 0,-346.17 0,-346.17 0,-342.33 3.83,-338.5 7.67,-338.5 7.67,-338.5 54.33,-338.5 54.33,-338.5 58.17,-338.5 62,-342.33 62,-346.17 62,-346.17 62,-353.83 62,-353.83 62,-357.67 58.17,-361.5 54.33,-361.5"/>
<text text-anchor="middle" x="31" y="-346.3" font-family="Arial" font-size="14.00" fill="#c6c5fe">index.js</text>
</g>
<!-- index.js&#45;&gt;cachingLayer/redisClient.js -->
<g id="edge14" class="edge">
<title>index.js&#45;&gt;cachingLayer/redisClient.js</title>
<path fill="none" stroke="#757575" d="M38.83,-338.35C75.41,-277.62 254.96,0 480,0 480,0 480,0 947.5,0 1108.96,0 1150.81,-3.66 1309,-36 1338.8,-42.09 1371.51,-52.43 1396.34,-61.08"/>
<polygon fill="#757575" stroke="#757575" points="1395.19,-64.38 1405.79,-64.41 1397.53,-57.78 1395.19,-64.38"/>
</g>
<!-- index.js&#45;&gt;config/config.js -->
<g id="edge15" class="edge">
<title>index.js&#45;&gt;config/config.js</title>
<path fill="none" stroke="#757575" d="M62.14,-351.68C168.17,-357.57 525.36,-377.43 670.95,-385.52"/>
<polygon fill="#757575" stroke="#757575" points="670.88,-389.02 681.06,-386.08 671.27,-382.03 670.88,-389.02"/>
</g>
<!-- routes/authRoutes/authRoutes.js -->
<g id="node14" class="node">
<title>routes/authRoutes/authRoutes.js</title>
<path fill="none" stroke="#c6c5fe" d="M303.33,-421.5C303.33,-421.5 105.67,-421.5 105.67,-421.5 101.83,-421.5 98,-417.67 98,-413.83 98,-413.83 98,-406.17 98,-406.17 98,-402.33 101.83,-398.5 105.67,-398.5 105.67,-398.5 303.33,-398.5 303.33,-398.5 307.17,-398.5 311,-402.33 311,-406.17 311,-406.17 311,-413.83 311,-413.83 311,-417.67 307.17,-421.5 303.33,-421.5"/>
<text text-anchor="middle" x="204.5" y="-406.3" font-family="Arial" font-size="14.00" fill="#c6c5fe">routes/authRoutes/authRoutes.js</text>
</g>
<!-- index.js&#45;&gt;routes/authRoutes/authRoutes.js -->
<g id="edge16" class="edge">
<title>index.js&#45;&gt;routes/authRoutes/authRoutes.js</title>
<path fill="none" stroke="#757575" d="M51.38,-361.51C64.24,-368.77 81.71,-377.89 98,-384 110.25,-388.59 123.6,-392.6 136.56,-396.01"/>
<polygon fill="#757575" stroke="#757575" points="135.81,-399.43 146.36,-398.5 137.53,-392.65 135.81,-399.43"/>
</g>
<!-- routes/blogRoutes/blogRoutes.js -->
<g id="node15" class="node">
<title>routes/blogRoutes/blogRoutes.js</title>
<path fill="none" stroke="#c6c5fe" d="M302.83,-341.5C302.83,-341.5 106.17,-341.5 106.17,-341.5 102.33,-341.5 98.5,-337.67 98.5,-333.83 98.5,-333.83 98.5,-326.17 98.5,-326.17 98.5,-322.33 102.33,-318.5 106.17,-318.5 106.17,-318.5 302.83,-318.5 302.83,-318.5 306.67,-318.5 310.5,-322.33 310.5,-326.17 310.5,-326.17 310.5,-333.83 310.5,-333.83 310.5,-337.67 306.67,-341.5 302.83,-341.5"/>
<text text-anchor="middle" x="204.5" y="-326.3" font-family="Arial" font-size="14.00" fill="#c6c5fe">routes/blogRoutes/blogRoutes.js</text>
</g>
<!-- index.js&#45;&gt;routes/blogRoutes/blogRoutes.js -->
<g id="edge17" class="edge">
<title>index.js&#45;&gt;routes/blogRoutes/blogRoutes.js</title>
<path fill="none" stroke="#757575" d="M62.27,-346.47C71.81,-345.36 82.95,-344.06 94.73,-342.69"/>
<polygon fill="#757575" stroke="#757575" points="95.21,-346.15 104.74,-341.52 94.4,-339.2 95.21,-346.15"/>
</g>
<!-- routes/authRoutes/authRoutes.js&#45;&gt;controllers/authentication/authController.js -->
<g id="edge25" class="edge">
<title>routes/authRoutes/authRoutes.js&#45;&gt;controllers/authentication/authController.js</title>
<path fill="none" stroke="#757575" d="M311.24,-410C319.59,-410 328.12,-410 336.67,-410"/>
<polygon fill="#757575" stroke="#757575" points="336.72,-413.5 346.72,-410 336.72,-406.5 336.72,-413.5"/>
</g>
<!-- routes/blogRoutes/blogRoutes.js&#45;&gt;controllers/blogController/blogController.js -->
<g id="edge26" class="edge">
<title>routes/blogRoutes/blogRoutes.js&#45;&gt;controllers/blogController/blogController.js</title>
<path fill="none" stroke="#757575" d="M258.43,-318.43C303.81,-308.51 369.27,-294.2 417.27,-283.71"/>
<polygon fill="#757575" stroke="#757575" points="418.21,-287.09 427.24,-281.53 416.72,-280.25 418.21,-287.09"/>
</g>
<!-- middleware/auth.js -->
<g id="node16" class="node">
<title>middleware/auth.js</title>
<path fill="none" stroke="#c6c5fe" d="M538.33,-341.5C538.33,-341.5 423.67,-341.5 423.67,-341.5 419.83,-341.5 416,-337.67 416,-333.83 416,-333.83 416,-326.17 416,-326.17 416,-322.33 419.83,-318.5 423.67,-318.5 423.67,-318.5 538.33,-318.5 538.33,-318.5 542.17,-318.5 546,-322.33 546,-326.17 546,-326.17 546,-333.83 546,-333.83 546,-337.67 542.17,-341.5 538.33,-341.5"/>
<text text-anchor="middle" x="481" y="-326.3" font-family="Arial" font-size="14.00" fill="#c6c5fe">middleware/auth.js</text>
</g>
<!-- routes/blogRoutes/blogRoutes.js&#45;&gt;middleware/auth.js -->
<g id="edge27" class="edge">
<title>routes/blogRoutes/blogRoutes.js&#45;&gt;middleware/auth.js</title>
<path fill="none" stroke="#757575" d="M310.84,-330C342.49,-330 376.54,-330 405.73,-330"/>
<polygon fill="#757575" stroke="#757575" points="405.84,-333.5 415.84,-330 405.84,-326.5 405.84,-333.5"/>
</g>
<!-- middleware/auth.js&#45;&gt;config/config.js -->
<g id="edge18" class="edge">
<title>middleware/auth.js&#45;&gt;config/config.js</title>
<path fill="none" stroke="#757575" d="M546.06,-340.46C568.08,-344.6 592.78,-349.85 615,-356 631.4,-360.53 634.71,-364.1 651,-369 657.89,-371.07 665.15,-373.08 672.39,-374.98"/>
<polygon fill="#757575" stroke="#757575" points="671.66,-378.4 682.22,-377.48 673.39,-371.62 671.66,-378.4"/>
</g>
<!-- queues/processingQueue.js&#45;&gt;controllers/blogController/blogService.js -->
<g id="edge19" class="edge">
<title>queues/processingQueue.js&#45;&gt;controllers/blogController/blogService.js</title>
<path fill="none" stroke="#757575" d="M1039.16,-195.51C1168.53,-194.81 1405.6,-193.54 1555.67,-192.73"/>
<polygon fill="#757575" stroke="#757575" points="1555.89,-196.23 1565.87,-192.68 1555.85,-189.23 1555.89,-196.23"/>
</g>
<!-- queues/processingQueue.js&#45;&gt;controllers/recommendation/index.js -->
<g id="edge20" class="edge">
<title>queues/processingQueue.js&#45;&gt;controllers/recommendation/index.js</title>
<path fill="none" stroke="#757575" d="M982.65,-184.45C1025.81,-170.27 1099.07,-146.2 1146.22,-130.71"/>
<polygon fill="#757575" stroke="#757575" points="1147.46,-133.99 1155.86,-127.54 1145.27,-127.34 1147.46,-133.99"/>
</g>
<!-- queues/processingQueue.js&#45;&gt;models/Blog.js -->
<g id="edge21" class="edge">
<title>queues/processingQueue.js&#45;&gt;models/Blog.js</title>
<path fill="none" stroke="#757575" d="M1039.02,-206.14C1051.11,-207.24 1063.34,-208.24 1075,-209 1362.57,-227.78 1706.97,-231.87 1845.41,-232.75"/>
<polygon fill="#757575" stroke="#757575" points="1845.78,-236.26 1855.8,-232.82 1845.83,-229.26 1845.78,-236.26"/>
</g>
</g>
</svg>